<svg width="748" height="759" viewBox="0 0 748 759" fill="none" xmlns="http://www.w3.org/2000/svg">
<g id="Group 3">
<g id="Frame">
<g id="cloud">
<path id="cloud_2" d="M568.801 589.903C562.191 591.798 555.779 592.733 550.586 585.657C550.811 583.38 551.26 581.637 551.895 579.964C555.856 569.53 558.4 558.823 555.932 547.703C551.57 528.045 541.715 512.425 521.617 505.788C509.821 501.892 497.437 500.932 485.051 502.146C473.26 503.301 462.556 507.129 455.215 517.179C450.589 523.511 447.585 530.344 449.71 538.552C452.408 548.977 460.376 553.307 469.675 555.962C474.263 557.272 479.04 557.925 484.335 558.998C453.269 599.397 422.583 639.302 391.654 679.523C360.3 638.98 329.403 599.028 298.056 558.493C303.805 557.929 308.44 557.7 313 556.985C326.941 554.797 335.49 543.101 332.931 529.688C331.486 522.114 327.254 516.222 320.814 512.061C307.45 503.426 292.747 500.934 277.247 503.578C264.701 505.718 254.98 512.263 249.465 524.044C244.543 534.56 239.824 545.178 235.292 555.867C234.22 558.395 233.998 561.377 233.842 564.175C233.624 568.083 233.835 572.015 233.863 575.936C232.481 578.375 231.593 581.41 229.575 583.08C227.659 584.666 224.561 584.825 221.55 585.166C215.751 571.468 210.256 558.265 205.052 544.948C199.803 531.513 195.594 528.737 181.314 530.085C180.156 530.194 179.011 530.576 177.859 530.579C169.057 530.605 160.056 531.769 151.487 530.35C105.337 522.709 75.1399 475.865 86.727 429.762C95.6833 394.126 118.928 371.29 153.087 359.012C158.398 357.103 163.898 355.69 169.127 353.591C175.397 351.074 177.691 347.491 177.14 340.76C176.666 334.977 175.354 329.268 174.566 323.505C171.973 304.561 168.375 285.674 167.182 266.639C165.789 244.398 174.551 223.965 182.247 203.57C182.541 202.789 183.943 202.426 185.276 201.969C187.717 201.964 189.716 201.92 191.704 201.743C210.133 200.103 225.979 205.305 236.532 221.039C244.561 233.011 251.21 245.914 258.347 258.474C260.022 261.422 261.19 264.657 263.189 269.084C264.32 267.268 264.701 266.289 265.383 265.616C275.793 255.341 285.592 244.322 296.807 235.01C329.347 207.988 366.538 195.298 409.063 202.076C440.15 207.03 468.269 218.766 491.346 240.832C512.643 261.196 524.854 286.531 530.958 315.024C532.754 323.413 533.986 331.923 535.554 340.811C539.157 339.493 542.408 338.295 545.667 337.115C566.977 329.396 585.893 332.754 602.033 349.215C604.101 351.324 606.453 353.156 608.797 355.565C609.031 363.832 609.148 371.651 609.248 379.47C609.389 390.468 611.974 393.138 622.955 394.121C630.556 394.802 638.359 394.877 645.678 396.755C667.126 402.26 680.212 420.635 680.94 444.951C682.054 482.104 658.869 514.985 622.861 526.866C612.292 530.353 601.411 532.892 590.828 536.341C588.229 537.188 584.435 539.746 584.255 541.788C582.73 559.06 575.48 574.368 568.801 589.903ZM407.599 277.817C406.377 277.29 405.171 276.724 403.931 276.243C384.121 268.545 354.573 280.039 353.733 307.416C353.248 323.224 353.142 339.05 353.184 354.867C353.361 421.834 353.558 488.802 353.971 555.768C354.1 576.614 371.203 593.154 391.704 593.027C414.018 592.888 429.493 576.845 429.524 552.83C429.629 472.867 429.338 392.904 429.488 312.942C429.519 296.639 422.69 285.249 407.599 277.817Z" fill="#00FCD6"/>
<path id="Vector" d="M608.673 355.117C606.453 353.156 604.101 351.324 602.033 349.214C585.893 332.754 566.977 329.396 545.667 337.115C542.408 338.295 539.157 339.493 535.554 340.811C533.986 331.923 532.754 323.413 530.958 315.024C524.855 286.531 512.643 261.196 491.346 240.832C468.269 218.766 440.15 207.03 409.063 202.076C366.538 195.298 329.347 207.988 296.807 235.01C285.592 244.322 275.793 255.341 265.383 265.616C264.701 266.289 264.32 267.268 263.189 269.084C261.19 264.657 260.022 261.422 258.347 258.474C251.21 245.914 244.561 233.011 236.532 221.039C225.979 205.305 210.133 200.102 191.704 201.743C189.716 201.92 187.717 201.964 185.014 201.758C184.214 200.009 183.619 198.364 184.112 197.166C187.593 188.716 190.674 180.017 195.029 172.022C237.479 94.0724 302.291 53.941 392.075 56.5802C396.854 59.2418 401.403 61.9298 406.257 63.8453C420.65 69.5252 435.115 75.0309 449.645 80.3505C459.762 84.0545 469.859 88.0475 480.284 90.6145C490.866 93.2204 501.199 95.7592 510.173 102.364C513.63 104.908 517.668 106.67 521.473 108.729C540.943 119.266 556.742 134.025 569.944 151.574C576.65 160.487 582.758 169.77 592.156 176.297C594.136 177.672 595.545 180.446 596.331 182.864C599.38 192.255 599.247 192.299 606.947 185.937C607.204 185.725 607.454 185.505 608.035 185.404C611.579 191.656 615.527 197.533 617.821 203.996C620.536 211.645 624 217.521 632.894 218.138C634.104 247.823 635.34 277.507 636.506 307.194C636.832 315.489 636.949 323.792 636.75 332.682C632.064 333.242 627.791 333.187 623.518 333.186C615.61 333.183 612.454 335.882 611.039 343.632C610.337 347.476 609.467 351.289 608.673 355.117Z" fill="#009F87"/>
</g>
<g id="border">
<path id="Vector_2" d="M633.182 217.889C624 217.521 620.536 211.645 617.821 203.997C615.527 197.533 611.579 191.656 607.89 185.108C606.775 183.181 606.411 181.453 605.448 180.18C592.459 163.022 580.35 145.073 566.105 129.022C545.902 106.257 521.083 89.0931 493.18 76.7325C460.986 62.4713 427.444 54.5368 391.984 56.2536C302.291 53.9411 237.479 94.0725 195.029 172.022C190.674 180.018 187.593 188.716 184.112 197.167C183.619 198.364 184.214 200.009 184.567 201.658C183.943 202.426 182.542 202.789 182.247 203.57C174.551 223.965 165.789 244.398 167.182 266.639C168.375 285.674 171.973 304.561 174.566 323.505C175.354 329.268 176.666 334.977 177.14 340.76C177.691 347.491 175.397 351.074 169.127 353.591C163.898 355.69 158.398 357.103 153.087 359.012C118.928 371.29 95.6834 394.126 86.7271 429.762C75.14 475.865 105.337 522.709 151.487 530.35C160.056 531.769 169.057 530.605 177.859 530.58C179.011 530.576 180.156 530.195 181.314 530.085C195.594 528.737 199.803 531.513 205.053 544.948C210.256 558.265 215.751 571.468 221.172 585.059C220.601 589.595 218.244 591.091 213.962 591.05C195.637 590.873 177.281 591.634 158.989 590.839C124.739 589.352 94.6125 577.696 69.6531 553.336C47.7797 531.987 32.584 506.972 27.6385 476.794C20.66 434.209 27.3912 394.2 54.5724 359.333C66.9937 343.399 82.636 331.1 100.797 322.084C105.565 319.717 110.14 316.959 114.914 314.605C118.03 313.069 119.117 310.83 119.064 307.418C118.906 297.258 118.649 287.078 119.069 276.933C120.416 244.4 126.915 213.012 140.366 183.178C151.749 157.931 166.825 135.243 185.528 114.794C206.675 91.6714 230.369 71.8752 257.528 56.1483C284.49 40.535 313.296 30.1057 344.006 25.3941C364.422 22.2618 385.032 22.2595 405.691 23.8411C430.08 25.7083 453.67 31.0946 476.849 38.4975C502.863 46.8057 527.327 58.5463 549.476 74.511C569.34 88.8287 587.349 105.203 602.636 124.633C617.652 143.719 630.586 163.971 640.781 185.927C643.462 191.701 644.96 198.238 645.835 204.585C646.906 212.35 644.461 214.977 636.831 216.803C635.708 217.072 634.59 217.361 633.182 217.889Z" fill="#001D19"/>
<path id="Vector_3" d="M608.797 355.565C609.467 351.29 610.337 347.476 611.039 343.632C612.454 335.882 615.61 333.183 623.518 333.186C627.791 333.187 632.064 333.242 636.726 333.152C644.616 334.32 652.208 335.223 659.598 336.976C675.411 340.728 689.181 348.507 701.564 359.002C715.122 370.494 725.545 384.258 732.732 400.472C738.567 413.634 742.154 427.27 743.154 441.78C744.759 465.096 740.424 487.25 730.163 507.9C724.45 519.397 717.152 530.449 708.856 540.253C686.696 566.441 658.143 582.31 624.351 588.301C612.289 590.44 600.128 592.053 587.719 590.229C581.847 589.365 575.754 590.011 569.281 589.938C575.48 574.368 582.73 559.06 584.255 541.788C584.435 539.746 588.229 537.188 590.828 536.341C601.411 532.892 612.292 530.353 622.861 526.866C658.869 514.985 682.054 482.104 680.94 444.951C680.212 420.635 667.126 402.26 645.678 396.755C638.359 394.877 630.556 394.802 622.955 394.121C611.974 393.138 609.389 390.468 609.248 379.47C609.148 371.651 609.031 363.832 608.797 355.565Z" fill="#001D19"/>
<path id="Vector_4" d="M392.075 56.5802C427.444 54.5368 460.986 62.4713 493.18 76.7325C521.083 89.0931 545.902 106.257 566.105 129.022C580.35 145.073 592.459 163.022 605.448 180.18C606.411 181.453 606.775 183.181 607.563 184.993C607.454 185.505 607.204 185.725 606.947 185.937C599.247 192.299 599.38 192.256 596.331 182.864C595.545 180.446 594.136 177.672 592.156 176.297C582.758 169.77 576.65 160.487 569.944 151.574C556.742 134.025 540.943 119.266 521.473 108.729C517.668 106.67 513.63 104.908 510.173 102.364C501.199 95.7593 490.866 93.2205 480.284 90.6146C469.859 88.0476 459.762 84.0545 449.645 80.3505C435.115 75.0309 420.65 69.5253 406.257 63.8454C401.403 61.9299 396.854 59.2419 392.075 56.5802Z" fill="#00967F"/>
</g>
<g id="arrow">
<path id="Vector_5" d="M234.213 576.027C233.835 572.015 233.624 568.083 233.842 564.175C233.998 561.377 234.22 558.395 235.292 555.867C239.825 545.177 244.543 534.56 249.466 524.044C254.98 512.263 264.702 505.718 277.247 503.578C292.748 500.934 307.45 503.426 320.814 512.061C327.254 516.222 331.486 522.114 332.931 529.688C335.49 543.101 326.941 554.797 313 556.985C308.44 557.7 303.805 557.929 298.056 558.493C329.403 599.028 360.3 638.979 391.654 679.523C422.583 639.302 453.269 599.397 484.335 558.998C479.04 557.925 474.263 557.272 469.675 555.962C460.376 553.307 452.409 548.977 449.71 538.552C447.585 530.344 450.589 523.511 455.215 517.179C462.556 507.129 473.26 503.301 485.052 502.146C497.437 500.932 509.821 501.892 521.617 505.787C541.715 512.425 551.57 528.045 555.932 547.703C558.4 558.823 555.856 569.53 551.895 579.964C551.26 581.637 550.811 583.38 550.319 585.46C548.987 586.92 547.323 587.789 546.279 589.137C531.211 608.587 516.257 628.125 501.212 647.593C490.964 660.853 480.567 673.997 470.328 687.263C460.18 700.411 450.805 714.226 439.854 726.659C431.36 736.301 421.011 744.323 411.337 752.896C410.275 753.836 408.229 753.9 406.627 753.949C402.132 754.084 397.529 753.385 393.151 754.113C379.233 756.427 368.371 750.443 359.143 741.344C351.269 733.58 344.158 724.969 337.274 716.286C318.482 692.584 299.893 668.72 281.411 644.775C268.528 628.084 255.804 611.265 243.364 594.243C240.692 590.588 239.607 585.789 237.665 581.575C236.792 579.681 235.607 577.932 234.213 576.027Z" fill="#001D18"/>
<path id="Vector_6" d="M407.954 277.945C422.69 285.249 429.519 296.639 429.489 312.942C429.338 392.904 429.629 472.867 429.524 552.83C429.493 576.844 414.018 592.888 391.704 593.027C371.203 593.154 354.1 576.614 353.971 555.768C353.558 488.802 353.362 421.834 353.184 354.867C353.142 339.05 353.248 323.224 353.733 307.416C354.573 280.039 384.121 268.545 403.931 276.243C405.171 276.724 406.377 277.29 407.954 277.945Z" fill="#001E19"/>
</g>
</g>
</g>
</svg>
